<svg xmlns="http://www.w3.org/2000/svg" xmlns:xlink="http://www.w3.org/1999/xlink" width="2000" viewBox="0 0 1500 1499.999933" height="2000" preserveAspectRatio="xMidYMid meet"><defs><g></g></defs><g fill="#744f43" fill-opacity="1"><g transform="translate(256.712853, 783.489345)"><g><path d="M 60.46875 -127.59375 C 69.226562 -127.59375 76.9375 -126.363281 83.59375 -123.90625 C 90.25 -121.445312 93.578125 -118.117188 93.578125 -113.921875 C 93.578125 -109.722656 91.988281 -104.53125 88.8125 -98.34375 C 85.632812 -92.164062 82.96875 -89.078125 80.8125 -89.078125 C 80.207031 -89.078125 79.515625 -89.40625 78.734375 -90.0625 C 77.953125 -90.726562 76.148438 -91.453125 73.328125 -92.234375 C 70.515625 -93.015625 68.085938 -93.40625 66.046875 -93.40625 C 59.085938 -93.40625 53.476562 -90.941406 49.21875 -86.015625 C 44.957031 -81.097656 42.828125 -73.570312 42.828125 -63.4375 C 42.828125 -53.300781 45.015625 -45.769531 49.390625 -40.84375 C 53.773438 -35.925781 59.328125 -33.46875 66.046875 -33.46875 C 68.804688 -33.46875 71.894531 -33.859375 75.3125 -34.640625 C 78.738281 -35.421875 81.171875 -36.53125 82.609375 -37.96875 C 82.847656 -38.207031 83.328125 -38.328125 84.046875 -38.328125 C 84.765625 -38.328125 86.113281 -36.976562 88.09375 -34.28125 C 90.070312 -31.582031 91.898438 -28.039062 93.578125 -23.65625 C 95.265625 -19.28125 96.109375 -15.894531 96.109375 -13.5 C 96.109375 -8.820312 92.503906 -5.101562 85.296875 -2.34375 C 78.097656 0.414062 69.582031 1.796875 59.75 1.796875 C 43.914062 1.796875 30.898438 -3.78125 20.703125 -14.9375 C 10.503906 -26.09375 5.40625 -41.835938 5.40625 -62.171875 C 5.40625 -82.515625 10.648438 -98.503906 21.140625 -110.140625 C 31.640625 -121.773438 44.75 -127.59375 60.46875 -127.59375 Z M 60.46875 -127.59375 "></path></g></g></g><g fill="#744f43" fill-opacity="1"><g transform="translate(340.575597, 783.489345)"><g><path d="M 40.859375 -1.4375 C 40.859375 -0.351562 34.738281 0.1875 22.5 0.1875 C 12.894531 0.0625 8.09375 -0.421875 8.09375 -1.265625 L 8.09375 -123.8125 C 8.09375 -125.613281 13.914062 -126.515625 25.5625 -126.515625 C 35.757812 -126.160156 40.859375 -125.5625 40.859375 -124.71875 Z M 40.859375 -1.4375 "></path></g></g></g><g fill="#744f43" fill-opacity="1"><g transform="translate(372.428518, 783.489345)"><g><path d="M 19.4375 -65.328125 C 16.070312 -71.328125 14.390625 -76.21875 14.390625 -80 C 14.390625 -83.78125 15.410156 -86.207031 17.453125 -87.28125 C 24.296875 -90.28125 33.6875 -91.78125 45.625 -91.78125 C 57.5625 -91.78125 65.988281 -88.988281 70.90625 -83.40625 C 75.820312 -77.832031 78.28125 -69.585938 78.28125 -58.671875 L 78.28125 -30.234375 L 84.40625 -30.234375 C 86.445312 -30.234375 88.035156 -29.03125 89.171875 -26.625 C 90.316406 -24.226562 90.890625 -20.929688 90.890625 -16.734375 C 90.890625 -12.535156 89.835938 -8.394531 87.734375 -4.3125 C 85.628906 -0.238281 82.78125 1.796875 79.1875 1.796875 C 72.707031 1.796875 67.488281 0.0546875 63.53125 -3.421875 C 61.726562 -4.859375 60.347656 -6.597656 59.390625 -8.640625 C 53.867188 -1.679688 45.289062 1.796875 33.65625 1.796875 C 24.894531 1.796875 17.515625 -1.320312 11.515625 -7.5625 C 5.515625 -13.800781 2.515625 -21.175781 2.515625 -29.6875 C 2.515625 -49.25 14.210938 -59.03125 37.609375 -59.03125 L 47.515625 -59.03125 L 47.515625 -60.828125 C 47.515625 -63.953125 47.003906 -65.960938 45.984375 -66.859375 C 44.960938 -67.753906 42.59375 -68.203125 38.875 -68.203125 C 34.3125 -68.203125 27.832031 -67.242188 19.4375 -65.328125 Z M 33.828125 -32.21875 C 33.828125 -29.570312 34.546875 -27.554688 35.984375 -26.171875 C 37.429688 -24.796875 39.265625 -24.109375 41.484375 -24.109375 C 43.703125 -24.109375 45.710938 -25.007812 47.515625 -26.8125 L 47.515625 -40.671875 L 42.46875 -40.671875 C 36.707031 -40.671875 33.828125 -37.851562 33.828125 -32.21875 Z M 33.828125 -32.21875 "></path></g></g></g><g fill="#744f43" fill-opacity="1"><g transform="translate(448.37281, 783.489345)"><g><path d="M 47.515625 -0.1875 C 47.515625 0.65625 42.054688 1.078125 31.140625 1.078125 C 20.210938 0.835938 14.75 0.359375 14.75 -0.359375 L 14.75 -60.109375 L 9.890625 -60.109375 C 7.972656 -60.109375 6.441406 -61.273438 5.296875 -63.609375 C 4.160156 -65.953125 3.59375 -68.863281 3.59375 -72.34375 C 3.59375 -85.300781 7.4375 -91.78125 15.125 -91.78125 C 20.519531 -91.78125 25.015625 -90.128906 28.609375 -86.828125 C 32.210938 -83.535156 34.015625 -79.789062 34.015625 -75.59375 C 36.535156 -80.507812 39.925781 -84.4375 44.1875 -87.375 C 48.445312 -90.3125 52.796875 -91.78125 57.234375 -91.78125 C 64.191406 -91.78125 68.390625 -89.984375 69.828125 -86.390625 C 70.191406 -85.421875 70.375 -84.003906 70.375 -82.140625 C 70.375 -80.285156 69.800781 -76.957031 68.65625 -72.15625 C 67.519531 -67.363281 66.347656 -63.882812 65.140625 -61.71875 C 63.941406 -59.5625 63.222656 -58.484375 62.984375 -58.484375 C 62.742188 -58.484375 61.632812 -58.929688 59.65625 -59.828125 C 57.675781 -60.734375 55.90625 -61.1875 54.34375 -61.1875 C 49.789062 -61.1875 47.515625 -57.585938 47.515625 -50.390625 Z M 47.515625 -0.1875 "></path></g></g></g><g fill="#744f43" fill-opacity="1"><g transform="translate(502.541353, 783.489345)"><g><path d="M 19.4375 -65.328125 C 16.070312 -71.328125 14.390625 -76.21875 14.390625 -80 C 14.390625 -83.78125 15.410156 -86.207031 17.453125 -87.28125 C 24.296875 -90.28125 33.6875 -91.78125 45.625 -91.78125 C 57.5625 -91.78125 65.988281 -88.988281 70.90625 -83.40625 C 75.820312 -77.832031 78.28125 -69.585938 78.28125 -58.671875 L 78.28125 -30.234375 L 84.40625 -30.234375 C 86.445312 -30.234375 88.035156 -29.03125 89.171875 -26.625 C 90.316406 -24.226562 90.890625 -20.929688 90.890625 -16.734375 C 90.890625 -12.535156 89.835938 -8.394531 87.734375 -4.3125 C 85.628906 -0.238281 82.78125 1.796875 79.1875 1.796875 C 72.707031 1.796875 67.488281 0.0546875 63.53125 -3.421875 C 61.726562 -4.859375 60.347656 -6.597656 59.390625 -8.640625 C 53.867188 -1.679688 45.289062 1.796875 33.65625 1.796875 C 24.894531 1.796875 17.515625 -1.320312 11.515625 -7.5625 C 5.515625 -13.800781 2.515625 -21.175781 2.515625 -29.6875 C 2.515625 -49.25 14.210938 -59.03125 37.609375 -59.03125 L 47.515625 -59.03125 L 47.515625 -60.828125 C 47.515625 -63.953125 47.003906 -65.960938 45.984375 -66.859375 C 44.960938 -67.753906 42.59375 -68.203125 38.875 -68.203125 C 34.3125 -68.203125 27.832031 -67.242188 19.4375 -65.328125 Z M 33.828125 -32.21875 C 33.828125 -29.570312 34.546875 -27.554688 35.984375 -26.171875 C 37.429688 -24.796875 39.265625 -24.109375 41.484375 -24.109375 C 43.703125 -24.109375 45.710938 -25.007812 47.515625 -26.8125 L 47.515625 -40.671875 L 42.46875 -40.671875 C 36.707031 -40.671875 33.828125 -37.851562 33.828125 -32.21875 Z M 33.828125 -32.21875 "></path></g></g></g><g fill="#744f43" fill-opacity="1"><g transform="translate(578.485667, 783.489345)"><g><path d="M 38.15625 -1.265625 C 38.15625 -0.179688 33.144531 0.359375 23.125 0.359375 C 13.101562 0.359375 8.09375 -0.476562 8.09375 -2.15625 L 8.09375 -125.4375 C 8.09375 -126.28125 9.953125 -126.878906 13.671875 -127.234375 C 17.390625 -127.597656 20.507812 -127.78125 23.03125 -127.78125 C 33.113281 -127.78125 38.15625 -126.695312 38.15625 -124.53125 L 38.15625 -88.546875 C 44.875 -90.585938 49.972656 -91.609375 53.453125 -91.609375 C 62.566406 -91.609375 69.765625 -89.175781 75.046875 -84.3125 C 80.328125 -79.457031 82.96875 -70.429688 82.96875 -57.234375 L 82.96875 -1.4375 C 82.96875 -0.351562 78.285156 0.1875 68.921875 0.1875 C 58.367188 -0.175781 53.09375 -0.78125 53.09375 -1.625 L 53.09375 -54.53125 C 53.09375 -60.40625 51.171875 -63.34375 47.328125 -63.34375 C 44.691406 -63.34375 41.632812 -62.082031 38.15625 -59.5625 Z M 38.15625 -1.265625 "></path></g></g></g><g fill="#744f43" fill-opacity="1"><g transform="translate(651.550511, 783.489345)"><g><path d="M 27.71875 -79.90625 C 26.039062 -79.425781 24.359375 -79.1875 22.671875 -79.1875 C 20.992188 -79.1875 19.316406 -79.425781 17.640625 -79.90625 C 14.273438 -80.863281 12.59375 -82.421875 12.59375 -84.578125 L 12.59375 -122.5625 C 12.59375 -124.71875 15.175781 -126.273438 20.34375 -127.234375 C 22.851562 -127.710938 25.425781 -127.953125 28.0625 -127.953125 C 30.707031 -127.953125 33.351562 -127.710938 36 -127.234375 C 41.15625 -126.273438 43.734375 -124.71875 43.734375 -122.5625 L 32.9375 -84.578125 C 32.9375 -82.421875 31.195312 -80.863281 27.71875 -79.90625 Z M 27.71875 -79.90625 "></path></g></g></g><g fill="#744f43" fill-opacity="1"><g transform="translate(690.961946, 783.489345)"><g><path d="M 11.875 -32.390625 C 21.59375 -26.515625 29.269531 -23.578125 34.90625 -23.578125 C 38.507812 -23.578125 40.3125 -24.835938 40.3125 -27.359375 C 40.3125 -29.160156 37.191406 -31.5 30.953125 -34.375 C 15.953125 -40.488281 8.453125 -50.503906 8.453125 -64.421875 C 8.453125 -73.304688 11.691406 -80.085938 18.171875 -84.765625 C 24.648438 -89.441406 32.421875 -91.78125 41.484375 -91.78125 C 50.546875 -91.78125 58.222656 -90.820312 64.515625 -88.90625 C 70.816406 -86.988281 73.96875 -84.46875 73.96875 -81.34375 C 73.96875 -78.707031 72.675781 -75.226562 70.09375 -70.90625 C 67.519531 -66.582031 65.75 -64.242188 64.78125 -63.890625 C 59.625 -66.765625 54.046875 -68.203125 48.046875 -68.203125 C 44.804688 -68.203125 43.1875 -67.0625 43.1875 -64.78125 C 43.1875 -63.34375 43.816406 -62.113281 45.078125 -61.09375 C 46.335938 -60.070312 48.644531 -58.8125 52 -57.3125 C 55.363281 -55.820312 58.15625 -54.472656 60.375 -53.265625 C 62.59375 -52.066406 65.082031 -50.390625 67.84375 -48.234375 C 73.601562 -43.671875 76.484375 -37.734375 76.484375 -30.421875 C 76.484375 -20.816406 73.300781 -13.046875 66.9375 -7.109375 C 60.582031 -1.171875 50.988281 1.796875 38.15625 1.796875 C 29.632812 1.796875 21.894531 0.359375 14.9375 -2.515625 C 7.976562 -5.398438 4.5 -9.359375 4.5 -14.390625 C 4.5 -17.753906 5.304688 -21.296875 6.921875 -25.015625 C 8.546875 -28.734375 10.195312 -31.191406 11.875 -32.390625 Z M 11.875 -32.390625 "></path></g></g></g><g fill="#744f43" fill-opacity="1"><g transform="translate(754.848583, 783.489345)"><g></g></g></g><g fill="#744f43" fill-opacity="1"><g transform="translate(771.584512, 783.489345)"><g><path d="M 9 -125.4375 C 9 -126.875 14.1875 -127.59375 24.5625 -127.59375 C 34.945312 -127.59375 40.140625 -126.816406 40.140625 -125.265625 L 40.140625 -90.34375 C 45.296875 -91.300781 48.953125 -91.78125 51.109375 -91.78125 C 76.304688 -91.78125 88.90625 -77.320312 88.90625 -48.40625 C 88.90625 -32.332031 85.035156 -19.945312 77.296875 -11.25 C 69.554688 -2.550781 58.578125 1.796875 44.359375 1.796875 C 30.140625 1.796875 18.351562 -1.378906 9 -7.734375 Z M 46.078125 -63.703125 C 44.035156 -63.703125 42.054688 -63.046875 40.140625 -61.734375 L 40.140625 -27.359375 C 41.816406 -26.640625 43.582031 -26.28125 45.4375 -26.28125 C 47.300781 -26.28125 49.191406 -27 51.109375 -28.4375 C 54.472656 -30.832031 56.15625 -36.410156 56.15625 -45.171875 C 56.15625 -57.523438 52.796875 -63.703125 46.078125 -63.703125 Z M 46.078125 -63.703125 "></path></g></g></g><g fill="#744f43" fill-opacity="1"><g transform="translate(848.068667, 783.489345)"><g><path d="M 19.4375 -65.328125 C 16.070312 -71.328125 14.390625 -76.21875 14.390625 -80 C 14.390625 -83.78125 15.410156 -86.207031 17.453125 -87.28125 C 24.296875 -90.28125 33.6875 -91.78125 45.625 -91.78125 C 57.5625 -91.78125 65.988281 -88.988281 70.90625 -83.40625 C 75.820312 -77.832031 78.28125 -69.585938 78.28125 -58.671875 L 78.28125 -30.234375 L 84.40625 -30.234375 C 86.445312 -30.234375 88.035156 -29.03125 89.171875 -26.625 C 90.316406 -24.226562 90.890625 -20.929688 90.890625 -16.734375 C 90.890625 -12.535156 89.835938 -8.394531 87.734375 -4.3125 C 85.628906 -0.238281 82.78125 1.796875 79.1875 1.796875 C 72.707031 1.796875 67.488281 0.0546875 63.53125 -3.421875 C 61.726562 -4.859375 60.347656 -6.597656 59.390625 -8.640625 C 53.867188 -1.679688 45.289062 1.796875 33.65625 1.796875 C 24.894531 1.796875 17.515625 -1.320312 11.515625 -7.5625 C 5.515625 -13.800781 2.515625 -21.175781 2.515625 -29.6875 C 2.515625 -49.25 14.210938 -59.03125 37.609375 -59.03125 L 47.515625 -59.03125 L 47.515625 -60.828125 C 47.515625 -63.953125 47.003906 -65.960938 45.984375 -66.859375 C 44.960938 -67.753906 42.59375 -68.203125 38.875 -68.203125 C 34.3125 -68.203125 27.832031 -67.242188 19.4375 -65.328125 Z M 33.828125 -32.21875 C 33.828125 -29.570312 34.546875 -27.554688 35.984375 -26.171875 C 37.429688 -24.796875 39.265625 -24.109375 41.484375 -24.109375 C 43.703125 -24.109375 45.710938 -25.007812 47.515625 -26.8125 L 47.515625 -40.671875 L 42.46875 -40.671875 C 36.707031 -40.671875 33.828125 -37.851562 33.828125 -32.21875 Z M 33.828125 -32.21875 "></path></g></g></g><g fill="#744f43" fill-opacity="1"><g transform="translate(924.012981, 783.489345)"><g><path d="M 8.09375 -124.53125 C 8.09375 -126.457031 13.550781 -127.421875 24.46875 -127.421875 C 34.664062 -127.054688 39.765625 -126.273438 39.765625 -125.078125 L 39.765625 -55.96875 L 57.59375 -88.90625 C 58.425781 -90.707031 63.519531 -91.609375 72.875 -91.609375 C 82.238281 -91.609375 88.242188 -91.003906 90.890625 -89.796875 L 67.484375 -51.65625 L 94.484375 -1.078125 C 94.722656 -0.597656 92.472656 -0.207031 87.734375 0.09375 C 82.992188 0.394531 79.066406 0.546875 75.953125 0.546875 C 64.429688 0.546875 58.25 0.00390625 57.40625 -1.078125 L 39.59375 -41.03125 L 39.59375 -1.265625 C 39.59375 0.296875 34.34375 1.078125 23.84375 1.078125 C 13.34375 1.078125 8.09375 0.359375 8.09375 -1.078125 Z M 8.09375 -124.53125 "></path></g></g></g><g fill="#744f43" fill-opacity="1"><g transform="translate(997.977514, 783.489345)"><g><path d="M 76.125 -4.859375 C 68.5625 -0.421875 58.84375 1.796875 46.96875 1.796875 C 35.09375 1.796875 25.070312 -2.25 16.90625 -10.34375 C 8.75 -18.445312 4.671875 -29.664062 4.671875 -44 C 4.671875 -58.34375 8.597656 -69.890625 16.453125 -78.640625 C 24.316406 -87.398438 34.25 -91.78125 46.25 -91.78125 C 58.25 -91.78125 67.515625 -88.71875 74.046875 -82.59375 C 80.585938 -76.476562 83.859375 -69.046875 83.859375 -60.296875 C 83.859375 -40.859375 72.703125 -31.140625 50.390625 -31.140625 L 37.96875 -31.140625 C 37.96875 -27.535156 38.957031 -25.039062 40.9375 -23.65625 C 42.914062 -22.28125 45.828125 -21.59375 49.671875 -21.59375 C 58.066406 -21.59375 66.046875 -23.515625 73.609375 -27.359375 C 73.722656 -27.472656 74.265625 -26.628906 75.234375 -24.828125 C 78.109375 -19.671875 79.546875 -15.320312 79.546875 -11.78125 C 79.546875 -8.25 78.40625 -5.941406 76.125 -4.859375 Z M 53.625 -56.875 C 53.625 -61.90625 51.164062 -64.421875 46.25 -64.421875 C 43.96875 -64.421875 42.015625 -63.734375 40.390625 -62.359375 C 38.773438 -60.984375 37.96875 -58.972656 37.96875 -56.328125 L 37.96875 -50.75 L 47.6875 -50.75 C 51.644531 -50.75 53.625 -52.789062 53.625 -56.875 Z M 53.625 -56.875 "></path></g></g></g><g fill="#744f43" fill-opacity="1"><g transform="translate(1068.34288, 783.489345)"><g><path d="M 47.515625 -0.1875 C 47.515625 0.65625 42.054688 1.078125 31.140625 1.078125 C 20.210938 0.835938 14.75 0.359375 14.75 -0.359375 L 14.75 -60.109375 L 9.890625 -60.109375 C 7.972656 -60.109375 6.441406 -61.273438 5.296875 -63.609375 C 4.160156 -65.953125 3.59375 -68.863281 3.59375 -72.34375 C 3.59375 -85.300781 7.4375 -91.78125 15.125 -91.78125 C 20.519531 -91.78125 25.015625 -90.128906 28.609375 -86.828125 C 32.210938 -83.535156 34.015625 -79.789062 34.015625 -75.59375 C 36.535156 -80.507812 39.925781 -84.4375 44.1875 -87.375 C 48.445312 -90.3125 52.796875 -91.78125 57.234375 -91.78125 C 64.191406 -91.78125 68.390625 -89.984375 69.828125 -86.390625 C 70.191406 -85.421875 70.375 -84.003906 70.375 -82.140625 C 70.375 -80.285156 69.800781 -76.957031 68.65625 -72.15625 C 67.519531 -67.363281 66.347656 -63.882812 65.140625 -61.71875 C 63.941406 -59.5625 63.222656 -58.484375 62.984375 -58.484375 C 62.742188 -58.484375 61.632812 -58.929688 59.65625 -59.828125 C 57.675781 -60.734375 55.90625 -61.1875 54.34375 -61.1875 C 49.789062 -61.1875 47.515625 -57.585938 47.515625 -50.390625 Z M 47.515625 -0.1875 "></path></g></g></g><g fill="#744f43" fill-opacity="1"><g transform="translate(1122.511423, 783.489345)"><g><path d="M 1.796875 -89.078125 C 1.796875 -90.398438 7.285156 -91.0625 18.265625 -91.0625 C 29.242188 -91.0625 34.914062 -90.460938 35.28125 -89.265625 L 48.234375 -46.796875 L 60.65625 -89.625 C 61.132812 -90.582031 64.851562 -91.0625 71.8125 -91.0625 C 87.769531 -91.0625 95.382812 -90.28125 94.65625 -88.71875 L 52.375 31.671875 C 52.25 32.390625 48.976562 32.75 42.5625 32.75 C 36.144531 32.75 30.175781 32.539062 24.65625 32.125 C 19.132812 31.707031 16.492188 31.195312 16.734375 30.59375 L 32.390625 -7.203125 Z M 1.796875 -89.078125 "></path></g></g></g><g fill="#744f43" fill-opacity="1"><g transform="translate(1202.054995, 783.489345)"><g><path d="M 37.609375 0.546875 C 37.609375 1.378906 31.9375 1.796875 20.59375 1.796875 C 9.257812 1.796875 3.59375 1.4375 3.59375 0.71875 L 3.59375 -31.671875 C 3.59375 -32.753906 9.257812 -33.296875 20.59375 -33.296875 C 31.9375 -33.296875 37.609375 -32.992188 37.609375 -32.390625 Z M 37.609375 0.546875 "></path></g></g></g></svg>