<svg xmlns="http://www.w3.org/2000/svg" xmlns:xlink="http://www.w3.org/1999/xlink" width="2000" viewBox="0 0 1500 1499.999933" height="2000" preserveAspectRatio="xMidYMid meet"><defs><g></g><clipPath id="9a20cd60b5"><rect x="0" width="1499" y="0" height="314"></rect></clipPath></defs><g transform="matrix(1, 0, 0, 1, 0, 540)"><g clip-path="url(#9a20cd60b5)"><g fill="#744f43" fill-opacity="1"><g transform="translate(-1.7008, 252.960193)"><g><path d="M 92.140625 -194.4375 C 105.492188 -194.4375 117.242188 -192.5625 127.390625 -188.8125 C 137.535156 -185.070312 142.609375 -180 142.609375 -173.59375 C 142.609375 -167.195312 140.1875 -159.289062 135.34375 -149.875 C 130.5 -140.457031 126.429688 -135.75 123.140625 -135.75 C 122.222656 -135.75 121.171875 -136.25 119.984375 -137.25 C 118.796875 -138.257812 116.050781 -139.359375 111.75 -140.546875 C 107.457031 -141.734375 103.757812 -142.328125 100.65625 -142.328125 C 90.050781 -142.328125 81.5 -138.578125 75 -131.078125 C 68.507812 -123.585938 65.265625 -112.117188 65.265625 -96.671875 C 65.265625 -81.222656 68.601562 -69.75 75.28125 -62.25 C 81.957031 -54.757812 90.414062 -51.015625 100.65625 -51.015625 C 104.851562 -51.015625 109.554688 -51.609375 114.765625 -52.796875 C 119.984375 -53.984375 123.6875 -55.671875 125.875 -57.859375 C 126.238281 -58.234375 126.96875 -58.421875 128.0625 -58.421875 C 129.164062 -58.421875 131.222656 -56.363281 134.234375 -52.25 C 137.253906 -48.132812 140.046875 -42.738281 142.609375 -36.0625 C 145.171875 -29.382812 146.453125 -24.21875 146.453125 -20.5625 C 146.453125 -13.4375 140.96875 -7.769531 130 -3.5625 C 119.03125 0.644531 106.046875 2.75 91.046875 2.75 C 66.910156 2.75 47.070312 -5.75 31.53125 -22.75 C 16 -39.757812 8.234375 -63.757812 8.234375 -94.75 C 8.234375 -125.738281 16.226562 -150.097656 32.21875 -167.828125 C 48.21875 -185.566406 68.191406 -194.4375 92.140625 -194.4375 Z M 92.140625 -194.4375 "></path></g></g></g><g fill="#744f43" fill-opacity="1"><g transform="translate(126.094334, 252.960193)"><g><path d="M 62.25 -2.1875 C 62.25 -0.539062 52.925781 0.28125 34.28125 0.28125 C 19.65625 0.09375 12.34375 -0.640625 12.34375 -1.921875 L 12.34375 -188.6875 C 12.34375 -191.425781 21.207031 -192.796875 38.9375 -192.796875 C 54.476562 -192.242188 62.25 -191.332031 62.25 -190.0625 Z M 62.25 -2.1875 "></path></g></g></g><g fill="#744f43" fill-opacity="1"><g transform="translate(174.633748, 252.960193)"><g><path d="M 29.625 -99.546875 C 24.5 -108.691406 21.9375 -116.144531 21.9375 -121.90625 C 21.9375 -127.664062 23.492188 -131.367188 26.609375 -133.015625 C 37.023438 -137.585938 51.328125 -139.875 69.515625 -139.875 C 87.710938 -139.875 100.554688 -135.617188 108.046875 -127.109375 C 115.546875 -118.609375 119.296875 -106.039062 119.296875 -89.40625 L 119.296875 -46.078125 L 128.625 -46.078125 C 131.726562 -46.078125 134.148438 -44.25 135.890625 -40.59375 C 137.628906 -36.9375 138.5 -31.90625 138.5 -25.5 C 138.5 -19.101562 136.894531 -12.796875 133.6875 -6.578125 C 130.488281 -0.359375 126.148438 2.75 120.671875 2.75 C 110.796875 2.75 102.84375 0.0976562 96.8125 -5.203125 C 94.070312 -7.398438 91.96875 -10.050781 90.5 -13.15625 C 82.09375 -2.550781 69.019531 2.75 51.28125 2.75 C 37.9375 2.75 26.691406 -2.003906 17.546875 -11.515625 C 8.410156 -21.023438 3.84375 -32.269531 3.84375 -45.25 C 3.84375 -75.050781 21.664062 -89.953125 57.3125 -89.953125 L 72.40625 -89.953125 L 72.40625 -92.703125 C 72.40625 -97.453125 71.625 -100.507812 70.0625 -101.875 C 68.507812 -103.25 64.898438 -103.9375 59.234375 -103.9375 C 52.285156 -103.9375 42.414062 -102.472656 29.625 -99.546875 Z M 51.5625 -49.09375 C 51.5625 -45.070312 52.65625 -42.007812 54.84375 -39.90625 C 57.039062 -37.800781 59.828125 -36.75 63.203125 -36.75 C 66.585938 -36.75 69.65625 -38.117188 72.40625 -40.859375 L 72.40625 -61.984375 L 64.71875 -61.984375 C 55.945312 -61.984375 51.5625 -57.6875 51.5625 -49.09375 Z M 51.5625 -49.09375 "></path></g></g></g><g fill="#744f43" fill-opacity="1"><g transform="translate(290.362264, 252.960193)"><g><path d="M 72.40625 -0.28125 C 72.40625 1 64.082031 1.640625 47.4375 1.640625 C 30.800781 1.273438 22.484375 0.546875 22.484375 -0.546875 L 22.484375 -91.59375 L 15.078125 -91.59375 C 12.160156 -91.59375 9.832031 -93.375 8.09375 -96.9375 C 6.351562 -100.507812 5.484375 -104.945312 5.484375 -110.25 C 5.484375 -130 11.332031 -139.875 23.03125 -139.875 C 31.257812 -139.875 38.113281 -137.359375 43.59375 -132.328125 C 49.082031 -127.296875 51.828125 -121.582031 51.828125 -115.1875 C 55.671875 -122.675781 60.835938 -128.660156 67.328125 -133.140625 C 73.816406 -137.628906 80.445312 -139.875 87.21875 -139.875 C 97.820312 -139.875 104.21875 -137.128906 106.40625 -131.640625 C 106.957031 -130.179688 107.234375 -128.03125 107.234375 -125.1875 C 107.234375 -122.351562 106.363281 -117.28125 104.625 -109.96875 C 102.882812 -102.65625 101.097656 -97.351562 99.265625 -94.0625 C 97.441406 -90.769531 96.347656 -89.125 95.984375 -89.125 C 95.617188 -89.125 93.925781 -89.8125 90.90625 -91.1875 C 87.894531 -92.5625 85.203125 -93.25 82.828125 -93.25 C 75.878906 -93.25 72.40625 -87.765625 72.40625 -76.796875 Z M 72.40625 -0.28125 "></path></g></g></g><g fill="#744f43" fill-opacity="1"><g transform="translate(372.907576, 252.960193)"><g><path d="M 29.625 -99.546875 C 24.5 -108.691406 21.9375 -116.144531 21.9375 -121.90625 C 21.9375 -127.664062 23.492188 -131.367188 26.609375 -133.015625 C 37.023438 -137.585938 51.328125 -139.875 69.515625 -139.875 C 87.710938 -139.875 100.554688 -135.617188 108.046875 -127.109375 C 115.546875 -118.609375 119.296875 -106.039062 119.296875 -89.40625 L 119.296875 -46.078125 L 128.625 -46.078125 C 131.726562 -46.078125 134.148438 -44.25 135.890625 -40.59375 C 137.628906 -36.9375 138.5 -31.90625 138.5 -25.5 C 138.5 -19.101562 136.894531 -12.796875 133.6875 -6.578125 C 130.488281 -0.359375 126.148438 2.75 120.671875 2.75 C 110.796875 2.75 102.84375 0.0976562 96.8125 -5.203125 C 94.070312 -7.398438 91.96875 -10.050781 90.5 -13.15625 C 82.09375 -2.550781 69.019531 2.75 51.28125 2.75 C 37.9375 2.75 26.691406 -2.003906 17.546875 -11.515625 C 8.410156 -21.023438 3.84375 -32.269531 3.84375 -45.25 C 3.84375 -75.050781 21.664062 -89.953125 57.3125 -89.953125 L 72.40625 -89.953125 L 72.40625 -92.703125 C 72.40625 -97.453125 71.625 -100.507812 70.0625 -101.875 C 68.507812 -103.25 64.898438 -103.9375 59.234375 -103.9375 C 52.285156 -103.9375 42.414062 -102.472656 29.625 -99.546875 Z M 51.5625 -49.09375 C 51.5625 -45.070312 52.65625 -42.007812 54.84375 -39.90625 C 57.039062 -37.800781 59.828125 -36.75 63.203125 -36.75 C 66.585938 -36.75 69.65625 -38.117188 72.40625 -40.859375 L 72.40625 -61.984375 L 64.71875 -61.984375 C 55.945312 -61.984375 51.5625 -57.6875 51.5625 -49.09375 Z M 51.5625 -49.09375 "></path></g></g></g><g fill="#744f43" fill-opacity="1"><g transform="translate(488.636127, 252.960193)"><g><path d="M 58.140625 -1.921875 C 58.140625 -0.273438 50.503906 0.546875 35.234375 0.546875 C 19.972656 0.546875 12.34375 -0.734375 12.34375 -3.296875 L 12.34375 -191.15625 C 12.34375 -192.4375 15.175781 -193.347656 20.84375 -193.890625 C 26.507812 -194.441406 31.265625 -194.71875 35.109375 -194.71875 C 50.460938 -194.71875 58.140625 -193.070312 58.140625 -189.78125 L 58.140625 -134.9375 C 68.378906 -138.039062 76.148438 -139.59375 81.453125 -139.59375 C 95.347656 -139.59375 106.316406 -135.890625 114.359375 -128.484375 C 122.398438 -121.078125 126.421875 -107.320312 126.421875 -87.21875 L 126.421875 -2.1875 C 126.421875 -0.539062 119.289062 0.28125 105.03125 0.28125 C 88.945312 -0.269531 80.90625 -1.1875 80.90625 -2.46875 L 80.90625 -83.09375 C 80.90625 -92.050781 77.976562 -96.53125 72.125 -96.53125 C 68.101562 -96.53125 63.441406 -94.613281 58.140625 -90.78125 Z M 58.140625 -1.921875 "></path></g></g></g><g fill="#744f43" fill-opacity="1"><g transform="translate(599.976766, 252.960193)"><g><path d="M 42.234375 -121.765625 C 39.671875 -121.035156 37.109375 -120.671875 34.546875 -120.671875 C 31.992188 -120.671875 29.4375 -121.035156 26.875 -121.765625 C 21.757812 -123.234375 19.203125 -125.609375 19.203125 -128.890625 L 19.203125 -186.765625 C 19.203125 -190.054688 23.128906 -192.429688 30.984375 -193.890625 C 34.828125 -194.617188 38.757812 -194.984375 42.78125 -194.984375 C 46.800781 -194.984375 50.820312 -194.617188 54.84375 -193.890625 C 62.707031 -192.429688 66.640625 -190.054688 66.640625 -186.765625 L 50.1875 -128.890625 C 50.1875 -125.609375 47.535156 -123.234375 42.234375 -121.765625 Z M 42.234375 -121.765625 "></path></g></g></g><g fill="#744f43" fill-opacity="1"><g transform="translate(660.0343, 252.960193)"><g><path d="M 18.09375 -49.359375 C 32.90625 -40.398438 44.609375 -35.921875 53.203125 -35.921875 C 58.691406 -35.921875 61.4375 -37.84375 61.4375 -41.6875 C 61.4375 -44.425781 56.679688 -47.988281 47.171875 -52.375 C 24.316406 -61.707031 12.890625 -76.976562 12.890625 -98.1875 C 12.890625 -111.707031 17.828125 -122.035156 27.703125 -129.171875 C 37.578125 -136.304688 49.414062 -139.875 63.21875 -139.875 C 77.019531 -139.875 88.71875 -138.410156 98.3125 -135.484375 C 107.914062 -132.554688 112.71875 -128.71875 112.71875 -123.96875 C 112.71875 -119.9375 110.75 -114.628906 106.8125 -108.046875 C 102.882812 -101.472656 100.191406 -97.910156 98.734375 -97.359375 C 90.867188 -101.742188 82.363281 -103.9375 73.21875 -103.9375 C 68.28125 -103.9375 65.8125 -102.203125 65.8125 -98.734375 C 65.8125 -96.535156 66.769531 -94.660156 68.6875 -93.109375 C 70.613281 -91.554688 74.132812 -89.632812 79.25 -87.34375 C 84.375 -85.0625 88.625 -83.003906 92 -81.171875 C 95.382812 -79.347656 99.179688 -76.789062 103.390625 -73.5 C 112.171875 -66.550781 116.5625 -57.5 116.5625 -46.34375 C 116.5625 -31.71875 111.710938 -19.878906 102.015625 -10.828125 C 92.328125 -1.773438 77.703125 2.75 58.140625 2.75 C 45.160156 2.75 33.367188 0.554688 22.765625 -3.828125 C 12.160156 -8.222656 6.859375 -14.257812 6.859375 -21.9375 C 6.859375 -27.0625 8.09375 -32.457031 10.5625 -38.125 C 13.03125 -43.789062 15.539062 -47.535156 18.09375 -49.359375 Z M 18.09375 -49.359375 "></path></g></g></g><g fill="#744f43" fill-opacity="1"><g transform="translate(757.388632, 252.960193)"><g></g></g></g><g fill="#744f43" fill-opacity="1"><g transform="translate(782.891857, 252.960193)"><g><path d="M 13.71875 -191.15625 C 13.71875 -193.34375 21.625 -194.4375 37.4375 -194.4375 C 53.25 -194.4375 61.15625 -193.25 61.15625 -190.875 L 61.15625 -137.671875 C 69.019531 -139.140625 74.597656 -139.875 77.890625 -139.875 C 116.285156 -139.875 135.484375 -117.835938 135.484375 -73.765625 C 135.484375 -49.273438 129.582031 -30.398438 117.78125 -17.140625 C 105.988281 -3.878906 89.257812 2.75 67.59375 2.75 C 45.9375 2.75 27.976562 -2.097656 13.71875 -11.796875 Z M 70.203125 -97.078125 C 67.097656 -97.078125 64.082031 -96.070312 61.15625 -94.0625 L 61.15625 -41.6875 C 63.71875 -40.59375 66.414062 -40.046875 69.25 -40.046875 C 72.082031 -40.046875 74.960938 -41.140625 77.890625 -43.328125 C 83.003906 -46.984375 85.5625 -55.488281 85.5625 -68.84375 C 85.5625 -87.664062 80.441406 -97.078125 70.203125 -97.078125 Z M 70.203125 -97.078125 "></path></g></g></g><g fill="#744f43" fill-opacity="1"><g transform="translate(899.44305, 252.960193)"><g><path d="M 29.625 -99.546875 C 24.5 -108.691406 21.9375 -116.144531 21.9375 -121.90625 C 21.9375 -127.664062 23.492188 -131.367188 26.609375 -133.015625 C 37.023438 -137.585938 51.328125 -139.875 69.515625 -139.875 C 87.710938 -139.875 100.554688 -135.617188 108.046875 -127.109375 C 115.546875 -118.609375 119.296875 -106.039062 119.296875 -89.40625 L 119.296875 -46.078125 L 128.625 -46.078125 C 131.726562 -46.078125 134.148438 -44.25 135.890625 -40.59375 C 137.628906 -36.9375 138.5 -31.90625 138.5 -25.5 C 138.5 -19.101562 136.894531 -12.796875 133.6875 -6.578125 C 130.488281 -0.359375 126.148438 2.75 120.671875 2.75 C 110.796875 2.75 102.84375 0.0976562 96.8125 -5.203125 C 94.070312 -7.398438 91.96875 -10.050781 90.5 -13.15625 C 82.09375 -2.550781 69.019531 2.75 51.28125 2.75 C 37.9375 2.75 26.691406 -2.003906 17.546875 -11.515625 C 8.410156 -21.023438 3.84375 -32.269531 3.84375 -45.25 C 3.84375 -75.050781 21.664062 -89.953125 57.3125 -89.953125 L 72.40625 -89.953125 L 72.40625 -92.703125 C 72.40625 -97.453125 71.625 -100.507812 70.0625 -101.875 C 68.507812 -103.25 64.898438 -103.9375 59.234375 -103.9375 C 52.285156 -103.9375 42.414062 -102.472656 29.625 -99.546875 Z M 51.5625 -49.09375 C 51.5625 -45.070312 52.65625 -42.007812 54.84375 -39.90625 C 57.039062 -37.800781 59.828125 -36.75 63.203125 -36.75 C 66.585938 -36.75 69.65625 -38.117188 72.40625 -40.859375 L 72.40625 -61.984375 L 64.71875 -61.984375 C 55.945312 -61.984375 51.5625 -57.6875 51.5625 -49.09375 Z M 51.5625 -49.09375 "></path></g></g></g><g fill="#744f43" fill-opacity="1"><g transform="translate(1015.171601, 252.960193)"><g><path d="M 12.34375 -189.78125 C 12.34375 -192.707031 20.660156 -194.171875 37.296875 -194.171875 C 52.835938 -193.617188 60.609375 -192.429688 60.609375 -190.609375 L 60.609375 -85.296875 L 87.765625 -135.484375 C 89.046875 -138.222656 96.816406 -139.59375 111.078125 -139.59375 C 125.335938 -139.59375 134.476562 -138.675781 138.5 -136.84375 L 102.84375 -78.703125 L 143.984375 -1.640625 C 144.347656 -0.910156 140.914062 -0.316406 133.6875 0.140625 C 126.46875 0.597656 120.484375 0.828125 115.734375 0.828125 C 98.179688 0.828125 88.765625 0.00390625 87.484375 -1.640625 L 60.328125 -62.53125 L 60.328125 -1.921875 C 60.328125 0.453125 52.328125 1.640625 36.328125 1.640625 C 20.335938 1.640625 12.34375 0.546875 12.34375 -1.640625 Z M 12.34375 -189.78125 "></path></g></g></g><g fill="#744f43" fill-opacity="1"><g transform="translate(1127.88324, 252.960193)"><g><path d="M 116 -7.40625 C 104.488281 -0.632812 89.679688 2.75 71.578125 2.75 C 53.472656 2.75 38.203125 -3.421875 25.765625 -15.765625 C 13.335938 -28.109375 7.125 -45.203125 7.125 -67.046875 C 7.125 -88.898438 13.113281 -106.5 25.09375 -119.84375 C 37.070312 -133.195312 52.203125 -139.875 70.484375 -139.875 C 88.765625 -139.875 102.882812 -135.207031 112.84375 -125.875 C 122.8125 -116.550781 127.796875 -105.21875 127.796875 -91.875 C 127.796875 -62.25 110.796875 -47.4375 76.796875 -47.4375 L 57.859375 -47.4375 C 57.859375 -41.957031 59.367188 -38.164062 62.390625 -36.0625 C 65.410156 -33.957031 69.84375 -32.90625 75.6875 -32.90625 C 88.488281 -32.90625 100.648438 -35.832031 112.171875 -41.6875 C 112.347656 -41.863281 113.171875 -40.582031 114.640625 -37.84375 C 119.023438 -29.976562 121.21875 -23.347656 121.21875 -17.953125 C 121.21875 -12.566406 119.476562 -9.050781 116 -7.40625 Z M 81.71875 -86.65625 C 81.71875 -94.34375 77.972656 -98.1875 70.484375 -98.1875 C 67.003906 -98.1875 64.03125 -97.132812 61.5625 -95.03125 C 59.09375 -92.925781 57.859375 -89.863281 57.859375 -85.84375 L 57.859375 -77.34375 L 72.671875 -77.34375 C 78.703125 -77.34375 81.71875 -80.445312 81.71875 -86.65625 Z M 81.71875 -86.65625 "></path></g></g></g><g fill="#744f43" fill-opacity="1"><g transform="translate(1235.110252, 252.960193)"><g><path d="M 72.40625 -0.28125 C 72.40625 1 64.082031 1.640625 47.4375 1.640625 C 30.800781 1.273438 22.484375 0.546875 22.484375 -0.546875 L 22.484375 -91.59375 L 15.078125 -91.59375 C 12.160156 -91.59375 9.832031 -93.375 8.09375 -96.9375 C 6.351562 -100.507812 5.484375 -104.945312 5.484375 -110.25 C 5.484375 -130 11.332031 -139.875 23.03125 -139.875 C 31.257812 -139.875 38.113281 -137.359375 43.59375 -132.328125 C 49.082031 -127.296875 51.828125 -121.582031 51.828125 -115.1875 C 55.671875 -122.675781 60.835938 -128.660156 67.328125 -133.140625 C 73.816406 -137.628906 80.445312 -139.875 87.21875 -139.875 C 97.820312 -139.875 104.21875 -137.128906 106.40625 -131.640625 C 106.957031 -130.179688 107.234375 -128.03125 107.234375 -125.1875 C 107.234375 -122.351562 106.363281 -117.28125 104.625 -109.96875 C 102.882812 -102.65625 101.097656 -97.351562 99.265625 -94.0625 C 97.441406 -90.769531 96.347656 -89.125 95.984375 -89.125 C 95.617188 -89.125 93.925781 -89.8125 90.90625 -91.1875 C 87.894531 -92.5625 85.203125 -93.25 82.828125 -93.25 C 75.878906 -93.25 72.40625 -87.765625 72.40625 -76.796875 Z M 72.40625 -0.28125 "></path></g></g></g><g fill="#744f43" fill-opacity="1"><g transform="translate(1317.655563, 252.960193)"><g><path d="M 2.75 -135.75 C 2.75 -137.757812 11.113281 -138.765625 27.84375 -138.765625 C 44.570312 -138.765625 53.207031 -137.851562 53.75 -136.03125 L 73.5 -71.3125 L 92.421875 -136.578125 C 93.148438 -138.035156 98.816406 -138.765625 109.421875 -138.765625 C 133.742188 -138.765625 145.351562 -137.578125 144.25 -135.203125 L 79.8125 48.265625 C 79.625 49.359375 74.640625 49.90625 64.859375 49.90625 C 55.078125 49.90625 45.976562 49.585938 37.5625 48.953125 C 29.15625 48.316406 25.132812 47.539062 25.5 46.625 L 49.359375 -10.96875 Z M 2.75 -135.75 "></path></g></g></g><g fill="#744f43" fill-opacity="1"><g transform="translate(1438.868882, 252.960193)"><g><path d="M 57.3125 0.828125 C 57.3125 2.109375 48.671875 2.75 31.390625 2.75 C 14.117188 2.75 5.484375 2.195312 5.484375 1.09375 L 5.484375 -48.265625 C 5.484375 -49.910156 14.117188 -50.734375 31.390625 -50.734375 C 48.671875 -50.734375 57.3125 -50.273438 57.3125 -49.359375 Z M 57.3125 0.828125 "></path></g></g></g></g></g></svg>